<svg width="20" height="18" viewBox="0 0 20 18" fill="none" xmlns="http://www.w3.org/2000/svg">
<path d="M15.7792 10.6208L15.2208 7.58083C14.9792 6.2675 14.8583 5.61083 14.3808 5.2225C13.9033 4.83417 13.2167 4.83333 11.8442 4.83333H8.15583C6.78333 4.83333 6.0975 4.83333 5.61917 5.2225C5.14167 5.61083 5.02083 6.2675 4.77917 7.58083L4.22083 10.6208C3.72083 13.3467 3.47 14.71 4.24083 15.6042C5.01167 16.5 6.43667 16.5 9.285 16.5H10.715C13.5633 16.5 14.9883 16.5 15.7592 15.605C16.53 14.71 16.28 13.3467 15.7792 10.6217" stroke="black" stroke-opacity="0.75" stroke-width="1.5" stroke-linecap="round" stroke-linejoin="round"/>
<path d="M10 7.75V13.1667M7.91667 11.5L10 13.5833L12.0833 11.5M17.5 8.16667C17.6288 8.10243 17.7455 8.01645 17.845 7.9125C18.3333 7.4075 18.3333 6.59167 18.3333 4.96C18.3333 3.32833 18.3333 2.51333 17.845 2.00667C17.3567 1.5 16.5717 1.5 15 1.5H5C3.42833 1.5 2.64333 1.5 2.155 2.00667C1.66667 2.51333 1.66667 3.32917 1.66667 4.96C1.66667 6.59083 1.66667 7.40667 2.155 7.9125C2.255 8.01694 2.37 8.10167 2.5 8.16667" stroke="black" stroke-opacity="0.75" stroke-width="1.5" stroke-linecap="round" stroke-linejoin="round"/>
</svg>
