<svg width="26" height="26" viewBox="0 0 26 26" fill="none" xmlns="http://www.w3.org/2000/svg">
<path d="M13 0.788086C20.1796 0.788086 25.9999 6.25553 26 13C26 19.7446 20.1797 25.2119 13 25.2119C5.8203 25.2119 0 19.7446 0 13C0.000119057 6.25553 5.82037 0.788086 13 0.788086ZM13.3936 7.87695C13.1847 7.87705 12.9846 7.96073 12.8369 8.1084C12.6893 8.25609 12.6065 8.4562 12.6064 8.66504V12.6045H8.66699C8.45803 12.6045 8.25713 12.6882 8.10938 12.8359C7.96183 12.9837 7.87891 13.1838 7.87891 13.3926C7.87891 13.6014 7.96182 13.8015 8.10938 13.9492C8.25713 14.097 8.45803 14.1807 8.66699 14.1807H12.6064V18.1201C12.6065 18.329 12.6893 18.5291 12.8369 18.6768C12.9846 18.8244 13.1847 18.9081 13.3936 18.9082C13.6025 18.9082 13.8034 18.8245 13.9512 18.6768C14.0988 18.5291 14.1816 18.3289 14.1816 18.1201V14.1807H18.1211C18.3301 14.1807 18.531 14.097 18.6787 13.9492C18.8262 13.8015 18.9092 13.6013 18.9092 13.3926C18.9092 13.1838 18.8262 12.9837 18.6787 12.8359C18.531 12.6882 18.3301 12.6045 18.1211 12.6045H14.1816V8.66504C14.1816 8.45625 14.0988 8.25608 13.9512 8.1084C13.8034 7.96064 13.6025 7.87695 13.3936 7.87695Z" fill="white"/>
</svg>
