<svg width="28" height="28" viewBox="0 0 28 28" fill="none" xmlns="http://www.w3.org/2000/svg">
<path d="M14 0.848633C21.732 0.848633 28 6.73662 28 14C27.9999 21.2633 21.7319 27.1514 14 27.1514C6.26807 27.1514 8.5215e-05 21.2633 0 14C0 6.73662 6.26801 0.848633 14 0.848633ZM12.8594 10.1387C12.2959 10.1387 11.8052 10.1376 11.4082 10.1855C11.0442 10.2296 10.6897 10.3216 10.3691 10.5371L10.2334 10.6367C9.87636 10.9272 9.68711 11.3001 9.56055 11.6973C9.44084 12.0729 9.3558 12.5462 9.25684 13.084H9.25586L8.78223 15.6641C8.57444 16.7968 8.40197 17.7281 8.375 18.4688C8.34723 19.2324 8.46749 19.9338 8.96973 20.5166C9.46806 21.0955 10.1461 21.3293 10.9131 21.4355C11.6626 21.5393 12.6316 21.5381 13.8174 21.5381H15.0303C16.216 21.5381 17.185 21.5392 17.9346 21.4355C18.7017 21.3294 19.3804 21.0962 19.8789 20.5176C20.3809 19.9346 20.5003 19.2327 20.4727 18.4688C20.4525 17.9132 20.3506 17.2507 20.2129 16.4766L20.0654 15.6641L19.5908 13.084C19.4919 12.5462 19.4068 12.0729 19.2871 11.6973C19.1605 11.3001 18.9714 10.9272 18.6143 10.6367C18.2597 10.3485 17.8555 10.2359 17.4395 10.1855C17.0423 10.1376 16.552 10.1387 15.9883 10.1387H12.8594ZM15.9883 11.6387C16.5886 11.6387 16.9733 11.6402 17.2598 11.6748C17.5265 11.7071 17.6174 11.7598 17.668 11.8008C17.7159 11.8398 17.7804 11.9109 17.8574 12.1523C17.9415 12.4161 18.0102 12.7792 18.1162 13.3555L18.5898 15.9346V15.9355L18.7383 16.752C18.8717 17.5038 18.9572 18.0694 18.9736 18.5234C18.9947 19.1057 18.8941 19.3627 18.7422 19.5391C18.5867 19.7195 18.3331 19.8665 17.7285 19.9502C17.1059 20.0363 16.2606 20.0381 15.0303 20.0381H13.8174C12.587 20.0381 11.7416 20.0364 11.1191 19.9502C10.5147 19.8664 10.261 19.7188 10.1055 19.5381L10.0508 19.4678C9.93033 19.293 9.8555 19.0328 9.87402 18.5234C9.89606 17.9179 10.0414 17.1143 10.2578 15.9346L10.7314 13.3555L10.8691 12.6367C10.9099 12.4412 10.9482 12.2842 10.9902 12.1523C11.0672 11.9111 11.1318 11.8398 11.1797 11.8008C11.2305 11.7594 11.3214 11.7071 11.5879 11.6748C11.8742 11.6402 12.2588 11.6387 12.8594 11.6387H15.9883ZM14.4238 12.6133C14.0099 12.6135 13.674 12.9493 13.6738 13.3633V16.502L13.1865 16.0146C12.8936 15.7222 12.4187 15.722 12.126 16.0146C11.8514 16.2893 11.8349 16.724 12.0752 17.0186L12.126 17.0762L13.8936 18.8438C14.1863 19.1365 14.6612 19.1362 14.9541 18.8438L16.7227 17.0762C17.0155 16.7833 17.0155 16.3075 16.7227 16.0146C16.4298 15.7218 15.954 15.7218 15.6611 16.0146L15.1738 16.502V13.3633C15.1737 12.9492 14.8379 12.6133 14.4238 12.6133ZM10.1816 7.31055C9.53694 7.31055 8.9752 7.30845 8.52637 7.37109C8.05288 7.43719 7.59591 7.58753 7.22754 7.96973C6.86285 8.34815 6.72306 8.81122 6.66113 9.28906C6.60166 9.74817 6.60352 10.3248 6.60352 10.9961C6.60352 11.6674 6.60166 12.2441 6.66113 12.7031C6.72296 13.1801 6.86369 13.6416 7.22754 14.0195L7.22656 14.0205C7.37116 14.1714 7.53888 14.2943 7.72559 14.3877C8.09594 14.5727 8.54617 14.423 8.73145 14.0527C8.91665 13.6823 8.76678 13.2312 8.39648 13.0459C8.36279 13.029 8.33456 13.0085 8.30957 12.9824L8.30762 12.9805L8.26758 12.9307C8.22596 12.8666 8.18063 12.7513 8.14941 12.5107C8.10532 12.1705 8.10352 11.7084 8.10352 10.9961C8.10352 10.2842 8.10538 9.8227 8.14941 9.48242C8.19105 9.16104 8.25808 9.06217 8.30762 9.01074C8.35355 8.96308 8.4373 8.89881 8.7334 8.85742C9.0545 8.8126 9.49298 8.81055 10.1816 8.81055H18.667C19.3553 8.81055 19.7932 8.81265 20.1143 8.85742C20.4107 8.89881 20.4951 8.96306 20.541 9.01074C20.5906 9.06225 20.6576 9.16074 20.6992 9.48145C20.7433 9.82165 20.7451 10.2836 20.7451 10.9961C20.7451 11.7086 20.7433 12.1705 20.6992 12.5107C20.6575 12.8322 20.5897 12.9301 20.541 12.9805L20.5391 12.9824C20.5144 13.0082 20.4851 13.03 20.4531 13.0459C20.0825 13.2308 19.9323 13.6811 20.1172 14.0518C20.3021 14.4223 20.7524 14.5735 21.123 14.3887C21.3093 14.2957 21.4781 14.1708 21.6221 14.0205L21.6211 14.0195C21.9849 13.642 22.1247 13.1807 22.1865 12.7041C22.246 12.245 22.2451 11.6678 22.2451 10.9961C22.2451 10.3245 22.246 9.7481 22.1865 9.28906C22.1246 8.81109 21.9848 8.34813 21.6201 7.96973C21.2519 7.58784 20.7955 7.43718 20.3223 7.37109C19.8735 7.30845 19.3116 7.31055 18.667 7.31055H10.1816Z" fill="white"/>
</svg>
