<svg width="48" height="48" viewBox="0 0 48 48" fill="none" xmlns="http://www.w3.org/2000/svg">
<path d="M24 0.666667C11.12 0.666667 0.666667 11.12 0.666667 24C0.666667 36.88 11.12 47.3333 24 47.3333C36.88 47.3333 47.3333 36.88 47.3333 24C47.3333 11.12 36.88 0.666667 24 0.666667ZM24 10C28.5033 10 32.1667 13.6633 32.1667 18.1667C32.1667 22.67 28.5033 26.3333 24 26.3333C19.4967 26.3333 15.8333 22.67 15.8333 18.1667C15.8333 13.6633 19.4967 10 24 10ZM24 42.6667C19.2633 42.6667 13.6633 40.7533 9.67333 35.9467C13.7609 32.7412 18.8054 30.9991 24 30.9991C29.1946 30.9991 34.2391 32.7412 38.3267 35.9467C34.3367 40.7533 28.7367 42.6667 24 42.6667Z" fill="black" fill-opacity="0.5"/>
</svg>
